PathFileType	4	(X/Y/Z)	 s01c0403.trc
DataRate	CameraRate	NumFrames	NumMarkers	Units	OrigDataRate	OrigDataStartFrame	OrigNumFrames
200	200	6	47	mm	200	251	2000
Frame#	Time	racr			lacr			c7			jug			rlel			rdr			llel			ldr			lic			ric			lasi			rasi			rpsi			lpsi			rgt			lgt			rth1			rth2			rth3			rth4			rlfc			rsh1			rsh2			rsh3			rsh4			rlmal			rmmal			rcal			rtoe			rmt5			lth1			lth2			lth4			lth3			llfc			lsh1			lsh2			lsh3			lsh4			llmal			lmmal			lcal			ltoe			lmt5			SBIKE			LBIKE			RBIKE			
		X1	Y1	Z1	X2	Y2	Z2	X3	Y3	Z3	X4	Y4	Z4	X5	Y5	Z5	X6	Y6	Z6	X7	Y7	Z7	X8	Y8	Z8	X9	Y9	Z9	X10	Y10	Z10	X11	Y11	Z11	X12	Y12	Z12	X13	Y13	Z13	X14	Y14	Z14	X15	Y15	Z15	X16	Y16	Z16	X17	Y17	Z17	X18	Y18	Z18	X19	Y19	Z19	X20	Y20	Z20	X21	Y21	Z21	X22	Y22	Z22	X23	Y23	Z23	X24	Y24	Z24	X25	Y25	Z25	X26	Y26	Z26	X27	Y27	Z27	X28	Y28	Z28	X29	Y29	Z29	X30	Y30	Z30	X31	Y31	Z31	X32	Y32	Z32	X33	Y33	Z33	X34	Y34	Z34	X35	Y35	Z35	X36	Y36	Z36	X37	Y37	Z37	X38	Y38	Z38	X39	Y39	Z39	X40	Y40	Z40	X41	Y41	Z41	X42	Y42	Z42	X43	Y43	Z43	X44	Y44	Z44	X45	Y45	Z45	X46	Y46	Z46	X47	Y47	Z47	
251	1.2550	455.529814	1365.715668	-106.830393	459.234438	1356.744147	-427.311788	410.405578	1424.512699	-264.550989	NaN	NaN	NaN	546.377482	1106.055817	-18.230195	708.725476	896.509569	-56.610186	535.965439	1090.500177	-511.500686	710.108804	905.118600	-437.890513	111.666069	1160.518084	-437.302824	78.991066	1142.895614	-104.856548	91.965784	1107.573213	-407.647180	105.589016	1093.290248	-128.532361	-53.553453	1172.688690	-206.349098	-56.604101	1177.201070	-311.641086	21.352265	1017.158612	-74.242658	47.411553	1033.783873	-461.407018	101.244993	904.332004	-59.740368	158.447919	843.032653	-63.189170	214.191408	773.081669	-78.025112	200.581207	878.870939	-74.652189	249.172299	671.389509	-101.464144	168.954175	584.094660	-69.671156	128.228692	509.744202	-71.379206	77.853462	436.381388	-82.989302	171.143735	484.405372	-105.836056	6.355419	329.022515	-101.337808	54.641167	332.310125	-177.422699	-44.250759	306.794794	-157.612721	210.525973	215.812615	-136.766897	100.348193	215.360194	-70.453718	152.770071	968.313000	-455.345396	241.688602	962.919078	-455.024537	246.730971	1017.280477	-446.053381	324.475208	948.819876	-434.560685	429.528518	891.774162	-409.678706	354.560468	806.450046	-437.107697	322.947315	726.182564	-431.863050	289.997348	647.818210	-418.979483	375.126456	707.687116	-403.452239	241.208037	530.178853	-404.147622	268.702296	538.603105	-317.939473	188.408054	492.651141	-362.481266	464.627992	471.148481	-371.724949	359.688531	451.515182	-436.391675	-226.016869	892.190584	-254.704896	-12.958464	84.810931	-458.160202	-23.038958	80.767749	-57.961789	
252	1.2600	455.474392	1365.815771	-106.880081	459.084361	1356.717507	-427.298626	410.287124	1424.608713	-264.652943	NaN	NaN	NaN	546.488760	1106.207094	-18.388704	708.759519	896.555280	-56.786683	535.981243	1090.635075	-511.336336	710.218804	905.163720	-438.137001	111.580723	1160.059775	-437.341859	78.967782	1142.927791	-105.007120	91.986112	1107.532187	-407.717061	105.533976	1093.271840	-128.688728	-53.594653	1172.654027	-206.463437	-56.629407	1177.108492	-311.780100	21.316955	1017.204090	-74.295535	47.395442	1033.654759	-461.526946	101.278393	904.442807	-59.759661	158.526228	843.183294	-63.145066	214.360331	773.299402	-77.937618	200.648364	879.072865	-74.620523	249.369052	671.576329	-101.262880	169.007456	584.395924	-69.553255	128.125189	510.112689	-71.325048	77.632887	436.883585	-82.941498	171.026189	484.696973	-105.699425	5.918494	329.712965	-101.321207	54.038160	333.084507	-177.479794	-44.707104	307.421408	-157.600580	210.049974	216.400462	-136.748617	99.845199	215.924142	-70.482380	152.712130	968.087918	-455.457458	241.653425	962.682109	-455.128692	246.756874	1017.021866	-446.183034	324.432907	948.539690	-434.627715	429.476446	891.493146	-409.697591	354.616490	806.020057	-437.175373	323.164087	725.755339	-431.912210	290.306697	647.376414	-419.018074	375.339801	707.376073	-403.436732	241.686530	529.587854	-404.123027	266.277438	537.479165	-317.075601	188.924177	492.112784	-362.448582	465.244646	470.581220	-371.769413	360.190366	450.951766	-436.403152	-226.023222	892.192266	-254.717456	-12.961462	84.806463	-458.152905	-23.036420	80.762531	-57.958712	
253	1.2650	455.403681	1365.918675	-106.946064	458.914988	1356.723571	-427.268242	410.148050	1424.712070	-264.741772	NaN	NaN	NaN	546.634690	1106.398375	-18.534820	708.808209	896.601025	-56.971009	536.028235	1090.799171	-511.203693	710.331481	905.196036	-438.374501	111.563433	1159.859655	-437.438467	78.947035	1142.960209	-105.138129	92.115282	1107.448453	-408.056539	105.479274	1093.266354	-128.816881	-53.643432	1172.608361	-206.567114	-56.678670	1177.012994	-311.918170	21.259467	1017.247508	-74.376736	47.432967	1033.463369	-461.628607	101.330961	904.546249	-59.787932	158.620763	843.324998	-63.134146	214.519093	773.476420	-77.858671	200.726010	879.250653	-74.573999	249.610774	671.759979	-101.075634	169.030093	584.713778	-69.414314	127.987226	510.501596	-71.254190	77.359333	437.383491	-82.899096	170.895426	485.041073	-105.585531	5.524640	330.268353	-101.296299	53.621810	333.609234	-177.460023	-45.180669	308.095204	-157.642071	209.513335	216.908696	-136.793984	99.354348	216.497488	-70.494826	152.589241	967.866209	-455.527434	241.617927	962.441258	-455.240078	246.329435	1016.513154	-446.044517	324.381048	948.245183	-434.723565	429.428076	891.232015	-409.727938	354.693437	805.641132	-437.213132	323.394999	725.252103	-431.952526	290.640756	646.827594	-419.048601	375.572673	707.070705	-403.454239	242.195847	529.074520	-404.179748	269.771530	537.392603	-317.937310	190.053791	491.515375	-361.801197	466.189150	469.935828	-372.038154	360.723792	450.437761	-436.452444	-226.035678	892.190595	-254.733763	-12.961466	84.818881	-458.162553	-23.037630	80.748414	-57.965440	
254	1.2700	455.322915	1365.973595	-106.999934	458.770994	1356.741954	-427.223358	409.955773	1424.818533	-264.812995	NaN	NaN	NaN	546.748129	1106.575259	-18.651533	708.836242	896.637943	-57.166108	536.070378	1091.038732	-511.080598	710.427096	905.256163	-438.542379	111.549607	1159.573920	-437.543362	78.896531	1142.982431	-105.266314	92.102068	1107.421838	-408.159571	105.439675	1093.232094	-128.917608	-53.692162	1172.544415	-206.708999	-56.721398	1176.916769	-312.061188	21.201282	1017.266929	-74.473535	47.435096	1033.342413	-461.766154	101.362359	904.631695	-59.811976	158.700591	843.444035	-63.094748	214.670195	773.640811	-77.795587	200.796870	879.405584	-74.558981	249.814329	671.931955	-100.918419	169.097431	585.039693	-69.294554	127.839521	510.911187	-71.194347	77.062992	437.853677	-82.876270	170.714466	485.331626	-105.466559	5.120117	330.942385	-101.316363	53.249354	334.055184	-177.458897	-45.680711	308.684571	-157.594862	208.958903	217.440237	-136.806273	98.821978	217.068574	-70.472930	152.548598	967.678614	-455.666940	241.581489	962.201709	-455.359305	246.644676	1016.463327	-446.554543	324.343088	947.957293	-434.782965	429.388715	890.887572	-409.797575	354.778048	805.228057	-437.272731	323.652793	724.786152	-432.006094	290.992782	646.255408	-419.100355	375.794579	706.736765	-403.506390	242.721901	528.569400	-404.199428	270.390126	536.920309	-317.936542	190.636119	491.053786	-361.842144	466.733750	469.289861	-372.022181	361.232360	449.786845	-436.440502	-226.039651	892.174127	-254.763500	-12.971132	84.796042	-458.156995	-23.047979	80.769774	-57.977373	
255	1.2750	455.272719	1366.064090	-107.075048	458.629278	1356.749384	-427.170613	409.777819	1424.937362	-264.863446	NaN	NaN	NaN	546.867591	1106.732942	-18.783279	708.856770	896.646063	-57.367884	536.111130	1091.257540	-510.988145	710.495852	905.295074	-438.645421	111.507216	1159.417937	-437.639109	78.861239	1142.989216	-105.379546	92.112592	1107.418511	-408.252294	105.389964	1093.223859	-129.030036	-53.764893	1172.476841	-206.820304	-56.776267	1176.819161	-312.195985	21.148021	1017.269939	-74.558240	47.454048	1033.217263	-461.869964	101.429311	904.712033	-59.858285	158.795060	843.569683	-63.099401	214.817999	773.783392	-77.745828	200.871873	879.548384	-74.553472	250.019205	672.091414	-100.764262	169.142563	585.327227	-69.169930	127.731695	511.255547	-71.087036	76.838401	438.320420	-82.833778	170.581103	485.631497	-105.418465	4.633420	331.547026	-101.254647	52.857316	334.567994	-177.462741	-46.159256	309.301437	-157.626588	208.424771	218.105470	-136.800697	98.268188	217.676345	-70.453381	152.623872	967.459733	-455.849435	241.541922	961.966895	-455.487694	246.281371	1015.930994	-446.409657	324.231902	947.612157	-435.389545	429.304851	890.604193	-409.881356	354.833650	804.807618	-437.395564	323.833487	724.407437	-432.051620	291.286544	645.830953	-419.137049	376.010238	706.383565	-403.565251	243.242467	528.024624	-404.200510	270.875900	536.447415	-318.021766	191.267710	490.494084	-361.763077	467.234125	468.671266	-372.025047	361.762498	449.253272	-436.417409	-226.052119	892.171632	-254.763427	-12.970018	84.817927	-458.159203	-23.046497	80.751711	-57.968448	
256	1.2800	455.170620	1366.131762	-107.139153	458.499666	1356.787583	-427.106491	409.579306	1425.037055	-264.926575	NaN	NaN	NaN	546.951455	1106.875418	-18.871835	708.878737	896.660390	-57.577596	536.153739	1091.472880	-510.903540	710.555093	905.333756	-438.695788	111.492350	1159.286226	-437.744717	78.809787	1142.979104	-105.485568	92.083641	1107.423745	-408.367327	105.343138	1093.162190	-129.142887	-53.838254	1172.398955	-206.949165	-56.828396	1176.716286	-312.313567	21.090645	1017.255703	-74.634056	47.423381	1033.101209	-461.974633	101.445513	904.766370	-59.941987	158.844364	843.654111	-63.103903	214.919227	773.892516	-77.691635	200.920434	879.650643	-74.546382	250.209354	672.224040	-100.584678	169.193855	585.590040	-69.062455	127.626852	511.670484	-70.984159	76.549811	438.827921	-82.753730	170.417927	485.911999	-105.321577	4.160876	332.175645	-101.310883	52.226549	335.290567	-177.453994	-46.650910	309.969750	-157.633941	208.026180	218.656799	-136.750657	97.784929	218.229469	-70.402540	152.473253	967.299643	-455.946777	241.495297	961.734878	-455.626067	246.461642	1015.879446	-446.845639	324.150928	947.335214	-435.543567	429.195559	890.364574	-410.039628	354.890651	804.451105	-437.482814	324.018137	723.995002	-432.120446	291.681768	645.325672	-419.221745	376.232793	706.011846	-403.635691	243.771050	527.408577	-404.243307	271.447853	535.729730	-318.046356	191.829397	490.036335	-361.759586	467.803443	468.023029	-372.090093	362.355252	448.673246	-436.371476	-226.051031	892.169265	-254.784409	-12.952414	84.779615	-458.174599	-23.045323	80.751186	-57.969025	
